<?xml version="1.0" encoding="UTF-8"?>
<svg version="1.1" xmlns="http://www.w3.org/2000/svg" width="99" height="92">
<path d="M0 0 C0.76376953 -0.020625 1.52753906 -0.04125 2.31445312 -0.0625 C6.70284465 -0.09305451 9.27948536 0.0316753 12.5625 3.25 C15.50699889 4.95970903 18.20900172 5.69108362 21.5625 6.25 C21.8925 5.26 22.2225 4.27 22.5625 3.25 C28.75506287 0.31668075 36.03079251 -1.04477357 42.6953125 0.859375 C44.69371263 1.58204368 46.62589853 2.37637756 48.5625 3.25 C49.738125 3.7759375 49.738125 3.7759375 50.9375 4.3125 C53.75043299 5.93534596 54.52980535 7.15191606 55.5625 10.25 C56.06910156 10.64832031 56.57570313 11.04664063 57.09765625 11.45703125 C59.41378706 14.29197536 59.0487238 17.43697427 59 20.9375 C58.99299072 22.01898315 58.99299072 22.01898315 58.98583984 23.12231445 C58.82357687 28.95520659 57.67059966 32.40502112 54.5625 37.25 C54.005625 38.7040625 54.005625 38.7040625 53.4375 40.1875 C52.5625 42.25 52.5625 42.25 50.5625 43.25 C50.2325 44.24 49.9025 45.23 49.5625 46.25 C48.964375 46.53875 48.36625 46.8275 47.75 47.125 C43.90787498 49.10095001 41.91134747 52.7267288 39.5625 56.25 C38.5415625 56.4975 38.5415625 56.4975 37.5 56.75 C36.5409375 56.9975 36.5409375 56.9975 35.5625 57.25 C35.2325 58.24 34.9025 59.23 34.5625 60.25 C33.5725 60.58 32.5825 60.91 31.5625 61.25 C31.0675 62.24 31.0675 62.24 30.5625 63.25 C29.5725 63.58 28.5825 63.91 27.5625 64.25 C26.5725 64.91 25.5825 65.57 24.5625 66.25 C19.95740446 69.32006369 19.95740446 69.32006369 15.6875 68.5625 C11.95590816 67.55887692 10.05455893 66.27607156 7.5625 63.25 C4.96404446 60.23886215 4.96404446 60.23886215 1.4375 58.75 C0.509375 58.5025 0.509375 58.5025 -0.4375 58.25 C-0.70433594 57.68667969 -0.97117187 57.12335938 -1.24609375 56.54296875 C-2.82549851 53.50326189 -4.94981046 51.47344466 -7.375 49.0625 C-8.25027344 48.18207031 -9.12554687 47.30164062 -10.02734375 46.39453125 C-12.32114842 44.0696831 -12.32114842 44.0696831 -15.4375 43.25 C-15.7675 41.6 -16.0975 39.95 -16.4375 38.25 C-17.0975 38.25 -17.7575 38.25 -18.4375 38.25 C-20.06625999 33.8017059 -20.94275722 29.56733822 -21.5625 24.875 C-21.73007812 23.62976563 -21.89765625 22.38453125 -22.0703125 21.1015625 C-22.19148438 20.16054688 -22.31265625 19.21953125 -22.4375 18.25 C-21.7775 18.25 -21.1175 18.25 -20.4375 18.25 C-20.64375 17.46625 -20.85 16.6825 -21.0625 15.875 C-21.18625 15.00875 -21.31 14.1425 -21.4375 13.25 C-20.7775 12.59 -20.1175 11.93 -19.4375 11.25 C-19.1075 10.404375 -18.7775 9.55875 -18.4375 8.6875 C-17.4375 6.25 -17.4375 6.25 -15.4375 5.25 C-14.798125 4.59 -14.15875 3.93 -13.5 3.25 C-9.61421016 -0.51803863 -5.10229581 0.03427235 0 0 Z " fill="#D72E38" transform="translate(31.4375,10.75)"/>
<path d="M0 0 C1.98 1.65 3.96 3.3 6 5 C3 5 3 5 1.3125 3.625 C0 2 0 2 0 0 Z " fill="#D83E3E" transform="translate(21,58)"/>
<path d="M0 0 C2 1 2 1 2 1 Z " fill="#D4AAAA" transform="translate(36,72)"/>
<path d="" fill="#FF007F" transform="translate(0,0)"/>
<path d="" fill="#BF8080" transform="translate(0,0)"/>
<path d="" fill="#FF5656" transform="translate(0,0)"/>
<path d="" fill="#FF8080" transform="translate(0,0)"/>
<path d="" fill="#BF8080" transform="translate(0,0)"/>
<path d="" fill="#CC6666" transform="translate(0,0)"/>
<path d="" fill="#CC3366" transform="translate(0,0)"/>
<path d="" fill="#AA5555" transform="translate(0,0)"/>
<path d="" fill="#FF5656" transform="translate(0,0)"/>
<path d="" fill="#FF8080" transform="translate(0,0)"/>
<path d="" fill="#CC3333" transform="translate(0,0)"/>
<path d="" fill="#BF8080" transform="translate(0,0)"/>
<path d="" fill="#FF5656" transform="translate(0,0)"/>
<path d="" fill="#FF5656" transform="translate(0,0)"/>
<path d="" fill="#CC3366" transform="translate(0,0)"/>
<path d="" fill="#BF8080" transform="translate(0,0)"/>
<path d="" fill="#CC3333" transform="translate(0,0)"/>
<path d="" fill="#CC3333" transform="translate(0,0)"/>
<path d="" fill="#CC3333" transform="translate(0,0)"/>
<path d="" fill="#CC6666" transform="translate(0,0)"/>
<path d="" fill="#CC3333" transform="translate(0,0)"/>
<path d="" fill="#FF5656" transform="translate(0,0)"/>
<path d="" fill="#CC6666" transform="translate(0,0)"/>
<path d="" fill="#AA5555" transform="translate(0,0)"/>
<path d="" fill="#BF8080" transform="translate(0,0)"/>
<path d="" fill="#CC3333" transform="translate(0,0)"/>
<path d="" fill="#FF8080" transform="translate(0,0)"/>
<path d="" fill="#BF8080" transform="translate(0,0)"/>
<path d="" fill="#BF8080" transform="translate(0,0)"/>
<path d="" fill="#FF00FF" transform="translate(0,0)"/>
<path d="" fill="#FF0000" transform="translate(0,0)"/>
<path d="" fill="#BF80BF" transform="translate(0,0)"/>
<path d="" fill="#FFAAAA" transform="translate(0,0)"/>
<path d="" fill="#BF8080" transform="translate(0,0)"/>
<path d="" fill="#AA5555" transform="translate(0,0)"/>
<path d="" fill="#AA5555" transform="translate(0,0)"/>
<path d="" fill="#AA5555" transform="translate(0,0)"/>
<path d="" fill="#FF5656" transform="translate(0,0)"/>
<path d="" fill="#BF8080" transform="translate(0,0)"/>
<path d="" fill="#BF8080" transform="translate(0,0)"/>
<path d="" fill="#FF8080" transform="translate(0,0)"/>
<path d="" fill="#FFFFFF" transform="translate(0,0)"/>
<path d="" fill="#FF0000" transform="translate(0,0)"/>
<path d="" fill="#FFFFFF" transform="translate(0,0)"/>
<path d="" fill="#FFFFFF" transform="translate(0,0)"/>
<path d="" fill="#FF0000" transform="translate(0,0)"/>
<path d="" fill="#FF0000" transform="translate(0,0)"/>
<path d="" fill="#FF0000" transform="translate(0,0)"/>
<path d="" fill="#FF0000" transform="translate(0,0)"/>
</svg>
